<svg xmlns="http://www.w3.org/2000/svg" xmlns:xlink="http://www.w3.org/1999/xlink" width="500" zoomAndPan="magnify" viewBox="0 0 375 374.999991" height="500" preserveAspectRatio="xMidYMid meet" version="1.0"><defs><g/><clipPath id="e6085b5466"><path d="M 148.515625 66.175781 L 172.285156 66.175781 L 172.285156 139.792969 L 148.515625 139.792969 Z M 148.515625 66.175781 " clip-rule="nonzero"/></clipPath><clipPath id="fef8be8a88"><path d="M 148.515625 199.957031 L 172.285156 199.957031 L 172.285156 273.574219 L 148.515625 273.574219 Z M 148.515625 199.957031 " clip-rule="nonzero"/></clipPath><clipPath id="162c5a3859"><path d="M 173.46875 158.359375 L 247.085938 158.359375 L 247.085938 182.128906 L 173.46875 182.128906 Z M 173.46875 158.359375 " clip-rule="nonzero"/></clipPath></defs><rect x="-37.5" width="450" fill="#ffffff" y="-37.499999" height="449.999989" fill-opacity="1"/><rect x="-37.5" width="450" fill="#000000" y="-37.499999" height="449.999989" fill-opacity="1"/><g fill="#f8f8f8" fill-opacity="1"><g transform="translate(72.305236, 259.790584)"><g><path d="M 30.375 0 L 22.59375 0 L 22.59375 -178.203125 L 75.296875 -178.203125 C 94.546875 -178.203125 109.523438 -173.894531 120.234375 -165.28125 C 130.941406 -156.664062 136.296875 -144.660156 136.296875 -129.265625 C 136.296875 -94.628906 113.875 -77.3125 69.03125 -77.3125 L 30.375 -77.3125 Z M 73.046875 -171.4375 L 30.375 -171.4375 L 30.375 -84.34375 L 69.28125 -84.34375 C 89.863281 -84.34375 104.878906 -87.851562 114.328125 -94.875 C 123.785156 -101.90625 128.515625 -113.285156 128.515625 -129.015625 C 128.515625 -143.566406 123.910156 -154.273438 114.703125 -161.140625 C 105.503906 -168.003906 91.617188 -171.4375 73.046875 -171.4375 Z M 73.046875 -171.4375 "/></g></g></g><g clip-path="url(#e6085b5466)"><path fill="#000000" d="M 148.515625 139.792969 L 148.515625 66.15625 L 172.285156 66.15625 L 172.285156 139.792969 Z M 148.515625 139.792969 " fill-opacity="1" fill-rule="nonzero"/></g><g clip-path="url(#fef8be8a88)"><path fill="#000000" d="M 148.515625 273.574219 L 148.515625 199.9375 L 172.285156 199.9375 L 172.285156 273.574219 Z M 148.515625 273.574219 " fill-opacity="1" fill-rule="nonzero"/></g><g clip-path="url(#162c5a3859)"><path fill="#000000" d="M 173.46875 158.359375 L 247.105469 158.359375 L 247.105469 182.128906 L 173.46875 182.128906 Z M 173.46875 158.359375 " fill-opacity="1" fill-rule="nonzero"/></g><g fill="#f8f8f8" fill-opacity="1"><g transform="translate(152.993593, 260.540584)"><g><path d="M 131.265625 -178.203125 L 139.046875 -178.203125 L 70.03125 0 L 61.5 0 L 5.015625 -178.203125 L 13.046875 -178.203125 L 66.015625 -8.03125 Z M 131.265625 -178.203125 "/></g></g></g><g fill="#f8f8f8" fill-opacity="1"><g transform="translate(122.025486, 287.605676)"><g><path d="M 2.171875 0 L 1.625 0 L 1.625 -12.78125 L 5.40625 -12.78125 C 6.78125 -12.78125 7.851562 -12.46875 8.625 -11.84375 C 9.394531 -11.226562 9.78125 -10.367188 9.78125 -9.265625 C 9.78125 -6.785156 8.171875 -5.546875 4.953125 -5.546875 L 2.171875 -5.546875 Z M 5.234375 -12.296875 L 2.171875 -12.296875 L 2.171875 -6.046875 L 4.96875 -6.046875 C 6.445312 -6.046875 7.523438 -6.296875 8.203125 -6.796875 C 8.878906 -7.304688 9.21875 -8.125 9.21875 -9.25 C 9.21875 -10.289062 8.882812 -11.054688 8.21875 -11.546875 C 7.5625 -12.046875 6.566406 -12.296875 5.234375 -12.296875 Z M 5.234375 -12.296875 "/></g></g></g><g fill="#f8f8f8" fill-opacity="1"><g transform="translate(136.768037, 287.605676)"><g><path d="M 1.625 0 L 1.625 -12.78125 L 2.171875 -12.78125 L 2.171875 0 Z M 1.625 0 "/></g></g></g><g fill="#f8f8f8" fill-opacity="1"><g transform="translate(144.940605, 287.605676)"><g><path d="M 0.71875 0 L 0.09375 0 L 4.65625 -6.5625 L 0.390625 -12.78125 L 1.03125 -12.78125 L 4.984375 -7.015625 L 9.03125 -12.78125 L 9.640625 -12.78125 L 5.296875 -6.5625 L 9.828125 0 L 9.1875 0 L 4.984375 -6.125 Z M 0.71875 0 "/></g></g></g><g fill="#f8f8f8" fill-opacity="1"><g transform="translate(159.197158, 287.605676)"><g><path d="M 8.296875 -12.3125 L 2.15625 -12.3125 L 2.15625 -6.75 L 8.25 -6.75 L 8.25 -6.28125 L 2.15625 -6.28125 L 2.15625 -0.46875 L 8.609375 -0.46875 L 8.515625 0 L 1.625 0 L 1.625 -12.78125 L 8.296875 -12.78125 Z M 8.296875 -12.3125 "/></g></g></g><g fill="#f8f8f8" fill-opacity="1"><g transform="translate(172.949717, 287.605676)"><g><path d="M 1.625 0 L 1.625 -12.78125 L 2.171875 -12.78125 L 2.171875 -0.484375 L 8.390625 -0.484375 L 8.296875 0 Z M 1.625 0 "/></g></g></g><g fill="#f8f8f8" fill-opacity="1"><g transform="translate(185.568281, 287.605676)"><g/></g></g><g fill="#f8f8f8" fill-opacity="1"><g transform="translate(193.830857, 287.605676)"><g><path d="M 9.40625 -12.78125 L 9.96875 -12.78125 L 5.015625 0 L 4.40625 0 L 0.359375 -12.78125 L 0.9375 -12.78125 L 4.734375 -0.578125 Z M 9.40625 -12.78125 "/></g></g></g><g fill="#f8f8f8" fill-opacity="1"><g transform="translate(208.069412, 287.605676)"><g><path d="M 1.625 0 L 1.625 -12.78125 L 2.171875 -12.78125 L 2.171875 0 Z M 1.625 0 "/></g></g></g><g fill="#f8f8f8" fill-opacity="1"><g transform="translate(216.241981, 287.605676)"><g><path d="M 5.1875 0.125 C 3.875 0.125 2.835938 -0.1875 2.078125 -0.8125 C 1.328125 -1.4375 0.875 -2.421875 0.71875 -3.765625 L 1.265625 -3.8125 C 1.472656 -2.582031 1.878906 -1.707031 2.484375 -1.1875 C 3.097656 -0.664062 4.007812 -0.40625 5.21875 -0.40625 C 6.226562 -0.40625 7.023438 -0.65625 7.609375 -1.15625 C 8.203125 -1.65625 8.5 -2.328125 8.5 -3.171875 C 8.5 -3.765625 8.378906 -4.234375 8.140625 -4.578125 C 7.910156 -4.929688 7.539062 -5.207031 7.03125 -5.40625 C 6.53125 -5.613281 5.878906 -5.796875 5.078125 -5.953125 C 4.398438 -6.085938 3.789062 -6.269531 3.25 -6.5 C 2.71875 -6.726562 2.289062 -7.070312 1.96875 -7.53125 C 1.65625 -7.988281 1.5 -8.628906 1.5 -9.453125 C 1.5 -10.117188 1.65625 -10.71875 1.96875 -11.25 C 2.289062 -11.78125 2.726562 -12.195312 3.28125 -12.5 C 3.84375 -12.800781 4.484375 -12.953125 5.203125 -12.953125 C 6.234375 -12.953125 7.078125 -12.671875 7.734375 -12.109375 C 8.390625 -11.554688 8.785156 -10.726562 8.921875 -9.625 L 8.421875 -9.5625 C 8.265625 -10.550781 7.921875 -11.273438 7.390625 -11.734375 C 6.867188 -12.191406 6.140625 -12.421875 5.203125 -12.421875 C 4.253906 -12.421875 3.488281 -12.148438 2.90625 -11.609375 C 2.332031 -11.066406 2.046875 -10.347656 2.046875 -9.453125 C 2.046875 -8.785156 2.171875 -8.257812 2.421875 -7.875 C 2.679688 -7.488281 3.046875 -7.191406 3.515625 -6.984375 C 3.984375 -6.773438 4.546875 -6.609375 5.203125 -6.484375 C 6.140625 -6.296875 6.890625 -6.070312 7.453125 -5.8125 C 8.015625 -5.5625 8.421875 -5.222656 8.671875 -4.796875 C 8.921875 -4.378906 9.046875 -3.835938 9.046875 -3.171875 C 9.046875 -2.492188 8.882812 -1.910156 8.5625 -1.421875 C 8.238281 -0.929688 7.785156 -0.550781 7.203125 -0.28125 C 6.628906 -0.0078125 5.957031 0.125 5.1875 0.125 Z M 5.1875 0.125 "/></g></g></g><g fill="#f8f8f8" fill-opacity="1"><g transform="translate(230.48053, 287.605676)"><g><path d="M 9.15625 -12.78125 L 9.125 -12.3125 L 4.96875 -12.3125 L 4.96875 0 L 4.40625 0 L 4.40625 -12.3125 L 0.15625 -12.3125 L 0.15625 -12.78125 Z M 9.15625 -12.78125 "/></g></g></g><g fill="#f8f8f8" fill-opacity="1"><g transform="translate(244.233089, 287.605676)"><g><path d="M 0.578125 0 L 5.765625 -12.78125 L 6.28125 -12.78125 L 11.25 0 L 10.671875 0 L 9.203125 -3.859375 L 2.703125 -3.859375 L 1.15625 0 Z M 2.890625 -4.34375 L 9 -4.34375 L 6.03125 -12.09375 Z M 2.890625 -4.34375 "/></g></g></g></svg>